<mxfile host="app.diagrams.net" modified="2024-01-26T02:43:22.750Z" agent="Mozilla/5.0 (Macintosh; Intel Mac OS X 10_15_7) AppleWebKit/537.36 (KHTML, like Gecko) Chrome/120.0.0.0 Safari/537.36" etag="wpXrkWMnOrkHuRGv8WtZ" version="23.0.1" type="github">
  <diagram name="第 1 页" id="dYHV9aIYxCr4mEEWxF15">
    <mxGraphModel dx="1026" dy="588" grid="1" gridSize="10" guides="1" tooltips="1" connect="1" arrows="1" fold="1" page="1" pageScale="1" pageWidth="827" pageHeight="1169" math="0" shadow="0">
      <root>
        <mxCell id="0" />
        <mxCell id="1" parent="0" />
        <mxCell id="zcVQtKgX9UZjlDBAPDre-43" value="" style="rounded=0;whiteSpace=wrap;html=1;fillColor=#fff2cc;strokeColor=#d6b656;" parent="1" vertex="1">
          <mxGeometry x="80" y="40" width="490" height="380" as="geometry" />
        </mxCell>
        <mxCell id="zcVQtKgX9UZjlDBAPDre-5" value="View" style="swimlane;fontStyle=1;align=center;verticalAlign=top;childLayout=stackLayout;horizontal=1;startSize=26;horizontalStack=0;resizeParent=1;resizeParentMax=0;resizeLast=0;collapsible=1;marginBottom=0;whiteSpace=wrap;html=1;" parent="1" vertex="1">
          <mxGeometry x="104" y="59" width="160" height="86" as="geometry" />
        </mxCell>
        <mxCell id="zcVQtKgX9UZjlDBAPDre-6" value="+ field: type" style="text;strokeColor=none;fillColor=none;align=left;verticalAlign=top;spacingLeft=4;spacingRight=4;overflow=hidden;rotatable=0;points=[[0,0.5],[1,0.5]];portConstraint=eastwest;whiteSpace=wrap;html=1;" parent="zcVQtKgX9UZjlDBAPDre-5" vertex="1">
          <mxGeometry y="26" width="160" height="26" as="geometry" />
        </mxCell>
        <mxCell id="zcVQtKgX9UZjlDBAPDre-7" value="" style="line;strokeWidth=1;fillColor=none;align=left;verticalAlign=middle;spacingTop=-1;spacingLeft=3;spacingRight=3;rotatable=0;labelPosition=right;points=[];portConstraint=eastwest;strokeColor=inherit;" parent="zcVQtKgX9UZjlDBAPDre-5" vertex="1">
          <mxGeometry y="52" width="160" height="8" as="geometry" />
        </mxCell>
        <mxCell id="zcVQtKgX9UZjlDBAPDre-8" value="+ method(type): type" style="text;strokeColor=none;fillColor=none;align=left;verticalAlign=top;spacingLeft=4;spacingRight=4;overflow=hidden;rotatable=0;points=[[0,0.5],[1,0.5]];portConstraint=eastwest;whiteSpace=wrap;html=1;" parent="zcVQtKgX9UZjlDBAPDre-5" vertex="1">
          <mxGeometry y="60" width="160" height="26" as="geometry" />
        </mxCell>
        <mxCell id="zcVQtKgX9UZjlDBAPDre-9" value="ViewModel" style="swimlane;fontStyle=1;align=center;verticalAlign=top;childLayout=stackLayout;horizontal=1;startSize=26;horizontalStack=0;resizeParent=1;resizeParentMax=0;resizeLast=0;collapsible=1;marginBottom=0;whiteSpace=wrap;html=1;" parent="1" vertex="1">
          <mxGeometry x="104" y="190" width="160" height="86" as="geometry" />
        </mxCell>
        <mxCell id="zcVQtKgX9UZjlDBAPDre-10" value="+ state: State" style="text;strokeColor=none;fillColor=none;align=left;verticalAlign=top;spacingLeft=4;spacingRight=4;overflow=hidden;rotatable=0;points=[[0,0.5],[1,0.5]];portConstraint=eastwest;whiteSpace=wrap;html=1;" parent="zcVQtKgX9UZjlDBAPDre-9" vertex="1">
          <mxGeometry y="26" width="160" height="26" as="geometry" />
        </mxCell>
        <mxCell id="zcVQtKgX9UZjlDBAPDre-11" value="" style="line;strokeWidth=1;fillColor=none;align=left;verticalAlign=middle;spacingTop=-1;spacingLeft=3;spacingRight=3;rotatable=0;labelPosition=right;points=[];portConstraint=eastwest;strokeColor=inherit;" parent="zcVQtKgX9UZjlDBAPDre-9" vertex="1">
          <mxGeometry y="52" width="160" height="8" as="geometry" />
        </mxCell>
        <mxCell id="zcVQtKgX9UZjlDBAPDre-12" value="+ getNetWorkData()" style="text;strokeColor=none;fillColor=none;align=left;verticalAlign=top;spacingLeft=4;spacingRight=4;overflow=hidden;rotatable=0;points=[[0,0.5],[1,0.5]];portConstraint=eastwest;whiteSpace=wrap;html=1;" parent="zcVQtKgX9UZjlDBAPDre-9" vertex="1">
          <mxGeometry y="60" width="160" height="26" as="geometry" />
        </mxCell>
        <mxCell id="zcVQtKgX9UZjlDBAPDre-13" value="" style="endArrow=open;endFill=1;endSize=12;html=1;rounded=0;exitX=0.5;exitY=1;exitDx=0;exitDy=0;exitPerimeter=0;entryX=0.5;entryY=0;entryDx=0;entryDy=0;" parent="1" source="zcVQtKgX9UZjlDBAPDre-8" target="zcVQtKgX9UZjlDBAPDre-9" edge="1">
          <mxGeometry width="160" relative="1" as="geometry">
            <mxPoint x="100" y="210" as="sourcePoint" />
            <mxPoint x="260" y="210" as="targetPoint" />
          </mxGeometry>
        </mxCell>
        <mxCell id="zcVQtKgX9UZjlDBAPDre-14" value="State" style="swimlane;fontStyle=1;align=center;verticalAlign=top;childLayout=stackLayout;horizontal=1;startSize=26;horizontalStack=0;resizeParent=1;resizeParentMax=0;resizeLast=0;collapsible=1;marginBottom=0;whiteSpace=wrap;html=1;" parent="1" vertex="1">
          <mxGeometry x="104" y="320" width="160" height="86" as="geometry" />
        </mxCell>
        <mxCell id="zcVQtKgX9UZjlDBAPDre-15" value="+ data: Any" style="text;strokeColor=none;fillColor=none;align=left;verticalAlign=top;spacingLeft=4;spacingRight=4;overflow=hidden;rotatable=0;points=[[0,0.5],[1,0.5]];portConstraint=eastwest;whiteSpace=wrap;html=1;" parent="zcVQtKgX9UZjlDBAPDre-14" vertex="1">
          <mxGeometry y="26" width="160" height="26" as="geometry" />
        </mxCell>
        <mxCell id="zcVQtKgX9UZjlDBAPDre-16" value="" style="line;strokeWidth=1;fillColor=none;align=left;verticalAlign=middle;spacingTop=-1;spacingLeft=3;spacingRight=3;rotatable=0;labelPosition=right;points=[];portConstraint=eastwest;strokeColor=inherit;" parent="zcVQtKgX9UZjlDBAPDre-14" vertex="1">
          <mxGeometry y="52" width="160" height="8" as="geometry" />
        </mxCell>
        <mxCell id="zcVQtKgX9UZjlDBAPDre-17" value="+ getData()" style="text;strokeColor=none;fillColor=none;align=left;verticalAlign=top;spacingLeft=4;spacingRight=4;overflow=hidden;rotatable=0;points=[[0,0.5],[1,0.5]];portConstraint=eastwest;whiteSpace=wrap;html=1;" parent="zcVQtKgX9UZjlDBAPDre-14" vertex="1">
          <mxGeometry y="60" width="160" height="26" as="geometry" />
        </mxCell>
        <mxCell id="zcVQtKgX9UZjlDBAPDre-18" value="" style="endArrow=open;endFill=1;endSize=12;html=1;rounded=0;exitX=0.5;exitY=1;exitDx=0;exitDy=0;exitPerimeter=0;entryX=0.5;entryY=0;entryDx=0;entryDy=0;" parent="1" source="zcVQtKgX9UZjlDBAPDre-12" target="zcVQtKgX9UZjlDBAPDre-14" edge="1">
          <mxGeometry width="160" relative="1" as="geometry">
            <mxPoint x="194" y="136" as="sourcePoint" />
            <mxPoint x="194" y="200" as="targetPoint" />
          </mxGeometry>
        </mxCell>
        <mxCell id="zcVQtKgX9UZjlDBAPDre-19" value="ChangeNotifer" style="swimlane;fontStyle=1;align=center;verticalAlign=top;childLayout=stackLayout;horizontal=1;startSize=26;horizontalStack=0;resizeParent=1;resizeParentMax=0;resizeLast=0;collapsible=1;marginBottom=0;whiteSpace=wrap;html=1;" parent="1" vertex="1">
          <mxGeometry x="380" y="203" width="160" height="60" as="geometry" />
        </mxCell>
        <mxCell id="zcVQtKgX9UZjlDBAPDre-20" value="+ controller: Controller" style="text;strokeColor=none;fillColor=none;align=left;verticalAlign=top;spacingLeft=4;spacingRight=4;overflow=hidden;rotatable=0;points=[[0,0.5],[1,0.5]];portConstraint=eastwest;whiteSpace=wrap;html=1;" parent="zcVQtKgX9UZjlDBAPDre-19" vertex="1">
          <mxGeometry y="26" width="160" height="26" as="geometry" />
        </mxCell>
        <mxCell id="zcVQtKgX9UZjlDBAPDre-21" value="" style="line;strokeWidth=1;fillColor=none;align=left;verticalAlign=middle;spacingTop=-1;spacingLeft=3;spacingRight=3;rotatable=0;labelPosition=right;points=[];portConstraint=eastwest;strokeColor=inherit;" parent="zcVQtKgX9UZjlDBAPDre-19" vertex="1">
          <mxGeometry y="52" width="160" height="8" as="geometry" />
        </mxCell>
        <mxCell id="zcVQtKgX9UZjlDBAPDre-23" value="" style="endArrow=block;endSize=16;endFill=0;html=1;rounded=0;exitX=1;exitY=0.5;exitDx=0;exitDy=0;entryX=0.006;entryY=-0.038;entryDx=0;entryDy=0;entryPerimeter=0;" parent="1" source="zcVQtKgX9UZjlDBAPDre-10" target="zcVQtKgX9UZjlDBAPDre-20" edge="1">
          <mxGeometry width="160" relative="1" as="geometry">
            <mxPoint x="190" y="210" as="sourcePoint" />
            <mxPoint x="350" y="210" as="targetPoint" />
          </mxGeometry>
        </mxCell>
        <mxCell id="zcVQtKgX9UZjlDBAPDre-28" value="" style="endArrow=open;endSize=12;dashed=1;html=1;rounded=0;exitX=1;exitY=0.5;exitDx=0;exitDy=0;entryX=0.006;entryY=0.077;entryDx=0;entryDy=0;entryPerimeter=0;" parent="1" source="zcVQtKgX9UZjlDBAPDre-6" target="zcVQtKgX9UZjlDBAPDre-37" edge="1">
          <mxGeometry width="160" relative="1" as="geometry">
            <mxPoint x="240" y="220" as="sourcePoint" />
            <mxPoint x="370" y="100" as="targetPoint" />
          </mxGeometry>
        </mxCell>
        <mxCell id="zcVQtKgX9UZjlDBAPDre-36" value="ChangeNotifierProvider" style="swimlane;fontStyle=1;align=center;verticalAlign=top;childLayout=stackLayout;horizontal=1;startSize=26;horizontalStack=0;resizeParent=1;resizeParentMax=0;resizeLast=0;collapsible=1;marginBottom=0;whiteSpace=wrap;html=1;" parent="1" vertex="1">
          <mxGeometry x="370" y="70" width="160" height="60" as="geometry" />
        </mxCell>
        <mxCell id="zcVQtKgX9UZjlDBAPDre-37" value="+ view: Widget" style="text;strokeColor=none;fillColor=none;align=left;verticalAlign=top;spacingLeft=4;spacingRight=4;overflow=hidden;rotatable=0;points=[[0,0.5],[1,0.5]];portConstraint=eastwest;whiteSpace=wrap;html=1;" parent="zcVQtKgX9UZjlDBAPDre-36" vertex="1">
          <mxGeometry y="26" width="160" height="26" as="geometry" />
        </mxCell>
        <mxCell id="zcVQtKgX9UZjlDBAPDre-38" value="" style="line;strokeWidth=1;fillColor=none;align=left;verticalAlign=middle;spacingTop=-1;spacingLeft=3;spacingRight=3;rotatable=0;labelPosition=right;points=[];portConstraint=eastwest;strokeColor=inherit;" parent="zcVQtKgX9UZjlDBAPDre-36" vertex="1">
          <mxGeometry y="52" width="160" height="8" as="geometry" />
        </mxCell>
        <mxCell id="zcVQtKgX9UZjlDBAPDre-44" value="" style="rounded=0;whiteSpace=wrap;html=1;fillColor=#d5e8d4;strokeColor=#82b366;" parent="1" vertex="1">
          <mxGeometry x="80" y="480" width="510" height="530" as="geometry" />
        </mxCell>
        <mxCell id="zcVQtKgX9UZjlDBAPDre-45" value="View" style="swimlane;fontStyle=1;align=center;verticalAlign=top;childLayout=stackLayout;horizontal=1;startSize=26;horizontalStack=0;resizeParent=1;resizeParentMax=0;resizeLast=0;collapsible=1;marginBottom=0;whiteSpace=wrap;html=1;" parent="1" vertex="1">
          <mxGeometry x="104" y="499" width="160" height="86" as="geometry" />
        </mxCell>
        <mxCell id="zcVQtKgX9UZjlDBAPDre-46" value="+ field: type" style="text;strokeColor=none;fillColor=none;align=left;verticalAlign=top;spacingLeft=4;spacingRight=4;overflow=hidden;rotatable=0;points=[[0,0.5],[1,0.5]];portConstraint=eastwest;whiteSpace=wrap;html=1;" parent="zcVQtKgX9UZjlDBAPDre-45" vertex="1">
          <mxGeometry y="26" width="160" height="26" as="geometry" />
        </mxCell>
        <mxCell id="zcVQtKgX9UZjlDBAPDre-47" value="" style="line;strokeWidth=1;fillColor=none;align=left;verticalAlign=middle;spacingTop=-1;spacingLeft=3;spacingRight=3;rotatable=0;labelPosition=right;points=[];portConstraint=eastwest;strokeColor=inherit;" parent="zcVQtKgX9UZjlDBAPDre-45" vertex="1">
          <mxGeometry y="52" width="160" height="8" as="geometry" />
        </mxCell>
        <mxCell id="zcVQtKgX9UZjlDBAPDre-48" value="+ method(type): type" style="text;strokeColor=none;fillColor=none;align=left;verticalAlign=top;spacingLeft=4;spacingRight=4;overflow=hidden;rotatable=0;points=[[0,0.5],[1,0.5]];portConstraint=eastwest;whiteSpace=wrap;html=1;" parent="zcVQtKgX9UZjlDBAPDre-45" vertex="1">
          <mxGeometry y="60" width="160" height="26" as="geometry" />
        </mxCell>
        <mxCell id="zcVQtKgX9UZjlDBAPDre-49" value="ViewController" style="swimlane;fontStyle=1;align=center;verticalAlign=top;childLayout=stackLayout;horizontal=1;startSize=26;horizontalStack=0;resizeParent=1;resizeParentMax=0;resizeLast=0;collapsible=1;marginBottom=0;whiteSpace=wrap;html=1;" parent="1" vertex="1">
          <mxGeometry x="104" y="630" width="160" height="86" as="geometry" />
        </mxCell>
        <mxCell id="zcVQtKgX9UZjlDBAPDre-50" value="+ data: Any" style="text;strokeColor=none;fillColor=none;align=left;verticalAlign=top;spacingLeft=4;spacingRight=4;overflow=hidden;rotatable=0;points=[[0,0.5],[1,0.5]];portConstraint=eastwest;whiteSpace=wrap;html=1;" parent="zcVQtKgX9UZjlDBAPDre-49" vertex="1">
          <mxGeometry y="26" width="160" height="26" as="geometry" />
        </mxCell>
        <mxCell id="zcVQtKgX9UZjlDBAPDre-51" value="" style="line;strokeWidth=1;fillColor=none;align=left;verticalAlign=middle;spacingTop=-1;spacingLeft=3;spacingRight=3;rotatable=0;labelPosition=right;points=[];portConstraint=eastwest;strokeColor=inherit;" parent="zcVQtKgX9UZjlDBAPDre-49" vertex="1">
          <mxGeometry y="52" width="160" height="8" as="geometry" />
        </mxCell>
        <mxCell id="zcVQtKgX9UZjlDBAPDre-52" value="+ getNetWorkData()" style="text;strokeColor=none;fillColor=none;align=left;verticalAlign=top;spacingLeft=4;spacingRight=4;overflow=hidden;rotatable=0;points=[[0,0.5],[1,0.5]];portConstraint=eastwest;whiteSpace=wrap;html=1;" parent="zcVQtKgX9UZjlDBAPDre-49" vertex="1">
          <mxGeometry y="60" width="160" height="26" as="geometry" />
        </mxCell>
        <mxCell id="zcVQtKgX9UZjlDBAPDre-62" value="" style="endArrow=block;endSize=16;endFill=0;html=1;rounded=0;exitX=1;exitY=0.5;exitDx=0;exitDy=0;entryX=0;entryY=-0.038;entryDx=0;entryDy=0;entryPerimeter=0;" parent="1" source="zcVQtKgX9UZjlDBAPDre-50" target="zcVQtKgX9UZjlDBAPDre-68" edge="1">
          <mxGeometry width="160" relative="1" as="geometry">
            <mxPoint x="190" y="650" as="sourcePoint" />
            <mxPoint x="375.03999999999996" y="668.012" as="targetPoint" />
          </mxGeometry>
        </mxCell>
        <mxCell id="zcVQtKgX9UZjlDBAPDre-63" value="" style="endArrow=open;endSize=12;dashed=1;html=1;rounded=0;exitX=1;exitY=0.5;exitDx=0;exitDy=0;entryX=0.006;entryY=0.077;entryDx=0;entryDy=0;entryPerimeter=0;" parent="1" source="zcVQtKgX9UZjlDBAPDre-46" target="zcVQtKgX9UZjlDBAPDre-65" edge="1">
          <mxGeometry width="160" relative="1" as="geometry">
            <mxPoint x="240" y="660" as="sourcePoint" />
            <mxPoint x="370" y="540" as="targetPoint" />
          </mxGeometry>
        </mxCell>
        <mxCell id="zcVQtKgX9UZjlDBAPDre-64" value="GetBuilder" style="swimlane;fontStyle=1;align=center;verticalAlign=top;childLayout=stackLayout;horizontal=1;startSize=26;horizontalStack=0;resizeParent=1;resizeParentMax=0;resizeLast=0;collapsible=1;marginBottom=0;whiteSpace=wrap;html=1;" parent="1" vertex="1">
          <mxGeometry x="370" y="510" width="160" height="60" as="geometry" />
        </mxCell>
        <mxCell id="zcVQtKgX9UZjlDBAPDre-65" value="+ view: Widget" style="text;strokeColor=none;fillColor=none;align=left;verticalAlign=top;spacingLeft=4;spacingRight=4;overflow=hidden;rotatable=0;points=[[0,0.5],[1,0.5]];portConstraint=eastwest;whiteSpace=wrap;html=1;" parent="zcVQtKgX9UZjlDBAPDre-64" vertex="1">
          <mxGeometry y="26" width="160" height="26" as="geometry" />
        </mxCell>
        <mxCell id="zcVQtKgX9UZjlDBAPDre-66" value="" style="line;strokeWidth=1;fillColor=none;align=left;verticalAlign=middle;spacingTop=-1;spacingLeft=3;spacingRight=3;rotatable=0;labelPosition=right;points=[];portConstraint=eastwest;strokeColor=inherit;" parent="zcVQtKgX9UZjlDBAPDre-64" vertex="1">
          <mxGeometry y="52" width="160" height="8" as="geometry" />
        </mxCell>
        <mxCell id="zcVQtKgX9UZjlDBAPDre-67" value="GetxController" style="swimlane;fontStyle=1;align=center;verticalAlign=top;childLayout=stackLayout;horizontal=1;startSize=26;horizontalStack=0;resizeParent=1;resizeParentMax=0;resizeLast=0;collapsible=1;marginBottom=0;whiteSpace=wrap;html=1;" parent="1" vertex="1">
          <mxGeometry x="370" y="644" width="160" height="60" as="geometry" />
        </mxCell>
        <mxCell id="zcVQtKgX9UZjlDBAPDre-68" value="+ view: Widget" style="text;strokeColor=none;fillColor=none;align=left;verticalAlign=top;spacingLeft=4;spacingRight=4;overflow=hidden;rotatable=0;points=[[0,0.5],[1,0.5]];portConstraint=eastwest;whiteSpace=wrap;html=1;" parent="zcVQtKgX9UZjlDBAPDre-67" vertex="1">
          <mxGeometry y="26" width="160" height="26" as="geometry" />
        </mxCell>
        <mxCell id="zcVQtKgX9UZjlDBAPDre-69" value="" style="line;strokeWidth=1;fillColor=none;align=left;verticalAlign=middle;spacingTop=-1;spacingLeft=3;spacingRight=3;rotatable=0;labelPosition=right;points=[];portConstraint=eastwest;strokeColor=inherit;" parent="zcVQtKgX9UZjlDBAPDre-67" vertex="1">
          <mxGeometry y="52" width="160" height="8" as="geometry" />
        </mxCell>
        <mxCell id="zcVQtKgX9UZjlDBAPDre-70" value="ViewBinging" style="swimlane;fontStyle=1;align=center;verticalAlign=top;childLayout=stackLayout;horizontal=1;startSize=26;horizontalStack=0;resizeParent=1;resizeParentMax=0;resizeLast=0;collapsible=1;marginBottom=0;whiteSpace=wrap;html=1;" parent="1" vertex="1">
          <mxGeometry x="104" y="907" width="160" height="60" as="geometry" />
        </mxCell>
        <mxCell id="zcVQtKgX9UZjlDBAPDre-72" value="" style="line;strokeWidth=1;fillColor=none;align=left;verticalAlign=middle;spacingTop=-1;spacingLeft=3;spacingRight=3;rotatable=0;labelPosition=right;points=[];portConstraint=eastwest;strokeColor=inherit;" parent="zcVQtKgX9UZjlDBAPDre-70" vertex="1">
          <mxGeometry y="26" width="160" height="8" as="geometry" />
        </mxCell>
        <mxCell id="zcVQtKgX9UZjlDBAPDre-73" value="+&amp;nbsp;dependencies&lt;span style=&quot;background-color: initial;&quot;&gt;()&lt;/span&gt;" style="text;strokeColor=none;fillColor=none;align=left;verticalAlign=top;spacingLeft=4;spacingRight=4;overflow=hidden;rotatable=0;points=[[0,0.5],[1,0.5]];portConstraint=eastwest;whiteSpace=wrap;html=1;" parent="zcVQtKgX9UZjlDBAPDre-70" vertex="1">
          <mxGeometry y="34" width="160" height="26" as="geometry" />
        </mxCell>
        <mxCell id="zcVQtKgX9UZjlDBAPDre-78" value="Bindngs" style="swimlane;fontStyle=1;align=center;verticalAlign=top;childLayout=stackLayout;horizontal=1;startSize=26;horizontalStack=0;resizeParent=1;resizeParentMax=0;resizeLast=0;collapsible=1;marginBottom=0;whiteSpace=wrap;html=1;" parent="1" vertex="1">
          <mxGeometry x="370" y="890" width="160" height="86" as="geometry" />
        </mxCell>
        <mxCell id="zcVQtKgX9UZjlDBAPDre-79" value="+ map" style="text;strokeColor=none;fillColor=none;align=left;verticalAlign=top;spacingLeft=4;spacingRight=4;overflow=hidden;rotatable=0;points=[[0,0.5],[1,0.5]];portConstraint=eastwest;whiteSpace=wrap;html=1;" parent="zcVQtKgX9UZjlDBAPDre-78" vertex="1">
          <mxGeometry y="26" width="160" height="26" as="geometry" />
        </mxCell>
        <mxCell id="zcVQtKgX9UZjlDBAPDre-80" value="" style="line;strokeWidth=1;fillColor=none;align=left;verticalAlign=middle;spacingTop=-1;spacingLeft=3;spacingRight=3;rotatable=0;labelPosition=right;points=[];portConstraint=eastwest;strokeColor=inherit;" parent="zcVQtKgX9UZjlDBAPDre-78" vertex="1">
          <mxGeometry y="52" width="160" height="8" as="geometry" />
        </mxCell>
        <mxCell id="zcVQtKgX9UZjlDBAPDre-81" value="+&amp;nbsp;dependencies()" style="text;strokeColor=none;fillColor=none;align=left;verticalAlign=top;spacingLeft=4;spacingRight=4;overflow=hidden;rotatable=0;points=[[0,0.5],[1,0.5]];portConstraint=eastwest;whiteSpace=wrap;html=1;" parent="zcVQtKgX9UZjlDBAPDre-78" vertex="1">
          <mxGeometry y="60" width="160" height="26" as="geometry" />
        </mxCell>
        <mxCell id="zcVQtKgX9UZjlDBAPDre-82" value="" style="endArrow=block;endSize=16;endFill=0;html=1;rounded=0;exitX=1.006;exitY=0.367;exitDx=0;exitDy=0;exitPerimeter=0;entryX=0;entryY=0.5;entryDx=0;entryDy=0;" parent="1" source="zcVQtKgX9UZjlDBAPDre-70" target="zcVQtKgX9UZjlDBAPDre-79" edge="1">
          <mxGeometry width="160" relative="1" as="geometry">
            <mxPoint x="250" y="793" as="sourcePoint" />
            <mxPoint x="410" y="793" as="targetPoint" />
          </mxGeometry>
        </mxCell>
        <mxCell id="zcVQtKgX9UZjlDBAPDre-85" value="" style="endArrow=open;endSize=12;dashed=1;html=1;rounded=0;exitX=0.488;exitY=0.962;exitDx=0;exitDy=0;exitPerimeter=0;" parent="1" source="zcVQtKgX9UZjlDBAPDre-48" target="zcVQtKgX9UZjlDBAPDre-49" edge="1">
          <mxGeometry width="160" relative="1" as="geometry">
            <mxPoint x="450" y="570" as="sourcePoint" />
            <mxPoint x="450" y="644" as="targetPoint" />
          </mxGeometry>
        </mxCell>
        <mxCell id="zcVQtKgX9UZjlDBAPDre-87" value="State" style="swimlane;fontStyle=1;align=center;verticalAlign=top;childLayout=stackLayout;horizontal=1;startSize=26;horizontalStack=0;resizeParent=1;resizeParentMax=0;resizeLast=0;collapsible=1;marginBottom=0;whiteSpace=wrap;html=1;" parent="1" vertex="1">
          <mxGeometry x="106" y="765" width="160" height="86" as="geometry" />
        </mxCell>
        <mxCell id="zcVQtKgX9UZjlDBAPDre-88" value="+ data: Any" style="text;strokeColor=none;fillColor=none;align=left;verticalAlign=top;spacingLeft=4;spacingRight=4;overflow=hidden;rotatable=0;points=[[0,0.5],[1,0.5]];portConstraint=eastwest;whiteSpace=wrap;html=1;" parent="zcVQtKgX9UZjlDBAPDre-87" vertex="1">
          <mxGeometry y="26" width="160" height="26" as="geometry" />
        </mxCell>
        <mxCell id="zcVQtKgX9UZjlDBAPDre-89" value="" style="line;strokeWidth=1;fillColor=none;align=left;verticalAlign=middle;spacingTop=-1;spacingLeft=3;spacingRight=3;rotatable=0;labelPosition=right;points=[];portConstraint=eastwest;strokeColor=inherit;" parent="zcVQtKgX9UZjlDBAPDre-87" vertex="1">
          <mxGeometry y="52" width="160" height="8" as="geometry" />
        </mxCell>
        <mxCell id="zcVQtKgX9UZjlDBAPDre-90" value="+ getData()" style="text;strokeColor=none;fillColor=none;align=left;verticalAlign=top;spacingLeft=4;spacingRight=4;overflow=hidden;rotatable=0;points=[[0,0.5],[1,0.5]];portConstraint=eastwest;whiteSpace=wrap;html=1;" parent="zcVQtKgX9UZjlDBAPDre-87" vertex="1">
          <mxGeometry y="60" width="160" height="26" as="geometry" />
        </mxCell>
        <mxCell id="zcVQtKgX9UZjlDBAPDre-91" value="" style="endArrow=open;endFill=1;endSize=12;html=1;rounded=0;entryX=0.5;entryY=0;entryDx=0;entryDy=0;exitX=0.506;exitY=0.962;exitDx=0;exitDy=0;exitPerimeter=0;" parent="1" source="zcVQtKgX9UZjlDBAPDre-52" target="zcVQtKgX9UZjlDBAPDre-87" edge="1">
          <mxGeometry width="160" relative="1" as="geometry">
            <mxPoint x="180" y="710" as="sourcePoint" />
            <mxPoint x="510" y="750" as="targetPoint" />
          </mxGeometry>
        </mxCell>
        <mxCell id="TLJ9EzLj0LAoUCGloaJC-1" value="" style="rounded=0;whiteSpace=wrap;html=1;dashed=1;strokeColor=#FFFFFF;" vertex="1" parent="1">
          <mxGeometry x="60" y="1310" width="710" height="510" as="geometry" />
        </mxCell>
        <mxCell id="TLJ9EzLj0LAoUCGloaJC-3" value="" style="rounded=0;whiteSpace=wrap;html=1;dashed=1;" vertex="1" parent="1">
          <mxGeometry x="60" y="1650" width="680" height="144" as="geometry" />
        </mxCell>
        <mxCell id="TLJ9EzLj0LAoUCGloaJC-4" value="&lt;font style=&quot;font-size: 24px;&quot;&gt;Basic&lt;/font&gt;" style="text;html=1;strokeColor=none;fillColor=none;align=center;verticalAlign=middle;whiteSpace=wrap;rounded=0;" vertex="1" parent="1">
          <mxGeometry x="70" y="1660" width="60" height="30" as="geometry" />
        </mxCell>
        <mxCell id="TLJ9EzLj0LAoUCGloaJC-6" value="" style="rounded=0;whiteSpace=wrap;html=1;dashed=1;" vertex="1" parent="1">
          <mxGeometry x="60" y="1480" width="680" height="160" as="geometry" />
        </mxCell>
        <mxCell id="TLJ9EzLj0LAoUCGloaJC-7" value="&lt;font style=&quot;font-size: 24px;&quot;&gt;Bussiness&lt;/font&gt;" style="text;html=1;strokeColor=none;fillColor=none;align=center;verticalAlign=middle;whiteSpace=wrap;rounded=0;" vertex="1" parent="1">
          <mxGeometry x="94" y="1490" width="60" height="30" as="geometry" />
        </mxCell>
        <mxCell id="TLJ9EzLj0LAoUCGloaJC-8" value="" style="rounded=0;whiteSpace=wrap;html=1;dashed=1;" vertex="1" parent="1">
          <mxGeometry x="60" y="1330" width="680" height="144" as="geometry" />
        </mxCell>
        <mxCell id="TLJ9EzLj0LAoUCGloaJC-10" value="&lt;font style=&quot;font-size: 24px;&quot;&gt;UI&lt;/font&gt;" style="text;html=1;strokeColor=none;fillColor=none;align=center;verticalAlign=middle;whiteSpace=wrap;rounded=0;" vertex="1" parent="1">
          <mxGeometry x="50" y="1340" width="60" height="30" as="geometry" />
        </mxCell>
        <mxCell id="TLJ9EzLj0LAoUCGloaJC-12" value="GetX(状态管理)" style="rounded=1;whiteSpace=wrap;html=1;fillColor=#d5e8d4;strokeColor=#82b366;" vertex="1" parent="1">
          <mxGeometry x="74" y="1694" width="100" height="30" as="geometry" />
        </mxCell>
        <mxCell id="TLJ9EzLj0LAoUCGloaJC-13" value="DIO(网络)" style="rounded=1;whiteSpace=wrap;html=1;fillColor=#d5e8d4;strokeColor=#82b366;" vertex="1" parent="1">
          <mxGeometry x="74" y="1740" width="100" height="30" as="geometry" />
        </mxCell>
        <mxCell id="TLJ9EzLj0LAoUCGloaJC-14" value="JSON(数据解析)" style="rounded=1;whiteSpace=wrap;html=1;fillColor=#d5e8d4;strokeColor=#82b366;" vertex="1" parent="1">
          <mxGeometry x="200" y="1740" width="100" height="30" as="geometry" />
        </mxCell>
        <mxCell id="TLJ9EzLj0LAoUCGloaJC-15" value="Screen(屏幕适配)" style="rounded=1;whiteSpace=wrap;html=1;fillColor=#d5e8d4;strokeColor=#82b366;" vertex="1" parent="1">
          <mxGeometry x="200" y="1694" width="100" height="30" as="geometry" />
        </mxCell>
        <mxCell id="TLJ9EzLj0LAoUCGloaJC-16" value="" style="rounded=0;whiteSpace=wrap;html=1;dashed=1;" vertex="1" parent="1">
          <mxGeometry x="70" y="1374" width="450" height="90" as="geometry" />
        </mxCell>
        <mxCell id="TLJ9EzLj0LAoUCGloaJC-17" value="" style="rounded=0;whiteSpace=wrap;html=1;dashed=1;" vertex="1" parent="1">
          <mxGeometry x="530" y="1374" width="190" height="86" as="geometry" />
        </mxCell>
        <mxCell id="TLJ9EzLj0LAoUCGloaJC-18" value="文件" style="rounded=1;whiteSpace=wrap;html=1;fillColor=#d5e8d4;strokeColor=#82b366;" vertex="1" parent="1">
          <mxGeometry x="330" y="1740" width="100" height="30" as="geometry" />
        </mxCell>
        <mxCell id="TLJ9EzLj0LAoUCGloaJC-19" value="Sqllite(数据库)" style="rounded=1;whiteSpace=wrap;html=1;fillColor=#d5e8d4;strokeColor=#82b366;" vertex="1" parent="1">
          <mxGeometry x="330" y="1694" width="100" height="30" as="geometry" />
        </mxCell>
        <mxCell id="TLJ9EzLj0LAoUCGloaJC-20" value="Logger(日志)" style="rounded=1;whiteSpace=wrap;html=1;fillColor=#d5e8d4;strokeColor=#82b366;" vertex="1" parent="1">
          <mxGeometry x="460" y="1694" width="100" height="30" as="geometry" />
        </mxCell>
        <mxCell id="TLJ9EzLj0LAoUCGloaJC-23" value="路由" style="rounded=1;whiteSpace=wrap;html=1;fillColor=#d5e8d4;strokeColor=#82b366;" vertex="1" parent="1">
          <mxGeometry x="460" y="1740" width="100" height="30" as="geometry" />
        </mxCell>
        <mxCell id="TLJ9EzLj0LAoUCGloaJC-24" value="UUID" style="rounded=1;whiteSpace=wrap;html=1;fillColor=#d5e8d4;strokeColor=#82b366;" vertex="1" parent="1">
          <mxGeometry x="590" y="1694" width="100" height="30" as="geometry" />
        </mxCell>
        <mxCell id="TLJ9EzLj0LAoUCGloaJC-25" value="..." style="rounded=1;whiteSpace=wrap;html=1;fillColor=#d5e8d4;strokeColor=#82b366;" vertex="1" parent="1">
          <mxGeometry x="590" y="1740" width="100" height="30" as="geometry" />
        </mxCell>
        <mxCell id="TLJ9EzLj0LAoUCGloaJC-29" value="" style="rounded=0;whiteSpace=wrap;html=1;dashed=1;" vertex="1" parent="1">
          <mxGeometry x="70" y="1520" width="470" height="110" as="geometry" />
        </mxCell>
        <mxCell id="TLJ9EzLj0LAoUCGloaJC-26" value="LoginService" style="rounded=1;whiteSpace=wrap;html=1;fillColor=#d5e8d4;strokeColor=#82b366;" vertex="1" parent="1">
          <mxGeometry x="80" y="1558" width="100" height="30" as="geometry" />
        </mxCell>
        <mxCell id="TLJ9EzLj0LAoUCGloaJC-27" value="UserService" style="rounded=1;whiteSpace=wrap;html=1;fillColor=#d5e8d4;strokeColor=#82b366;" vertex="1" parent="1">
          <mxGeometry x="80" y="1596" width="100" height="30" as="geometry" />
        </mxCell>
        <mxCell id="TLJ9EzLj0LAoUCGloaJC-28" value="NearbyService" style="rounded=1;whiteSpace=wrap;html=1;fillColor=#d5e8d4;strokeColor=#82b366;" vertex="1" parent="1">
          <mxGeometry x="200" y="1558" width="100" height="30" as="geometry" />
        </mxCell>
        <mxCell id="TLJ9EzLj0LAoUCGloaJC-30" value="&lt;span style=&quot;font-size: 17px;&quot;&gt;后台协议&lt;/span&gt;" style="text;html=1;strokeColor=none;fillColor=none;align=center;verticalAlign=middle;whiteSpace=wrap;rounded=0;fontSize=17;fontStyle=1" vertex="1" parent="1">
          <mxGeometry x="70" y="1521" width="100" height="30" as="geometry" />
        </mxCell>
        <mxCell id="TLJ9EzLj0LAoUCGloaJC-32" value="HallService" style="rounded=1;whiteSpace=wrap;html=1;fillColor=#d5e8d4;strokeColor=#82b366;" vertex="1" parent="1">
          <mxGeometry x="200" y="1596" width="100" height="30" as="geometry" />
        </mxCell>
        <mxCell id="TLJ9EzLj0LAoUCGloaJC-33" value="LikeService" style="rounded=1;whiteSpace=wrap;html=1;fillColor=#d5e8d4;strokeColor=#82b366;" vertex="1" parent="1">
          <mxGeometry x="320" y="1560" width="100" height="30" as="geometry" />
        </mxCell>
        <mxCell id="TLJ9EzLj0LAoUCGloaJC-34" value="BlackService" style="rounded=1;whiteSpace=wrap;html=1;fillColor=#d5e8d4;strokeColor=#82b366;" vertex="1" parent="1">
          <mxGeometry x="320" y="1596" width="100" height="30" as="geometry" />
        </mxCell>
        <mxCell id="TLJ9EzLj0LAoUCGloaJC-35" value="SettingsService" style="rounded=1;whiteSpace=wrap;html=1;fillColor=#d5e8d4;strokeColor=#82b366;" vertex="1" parent="1">
          <mxGeometry x="430" y="1560" width="100" height="30" as="geometry" />
        </mxCell>
        <mxCell id="TLJ9EzLj0LAoUCGloaJC-36" value="..." style="rounded=1;whiteSpace=wrap;html=1;fillColor=#d5e8d4;strokeColor=#82b366;" vertex="1" parent="1">
          <mxGeometry x="430" y="1596" width="100" height="30" as="geometry" />
        </mxCell>
        <mxCell id="TLJ9EzLj0LAoUCGloaJC-37" value="" style="rounded=0;whiteSpace=wrap;html=1;dashed=1;" vertex="1" parent="1">
          <mxGeometry x="550" y="1520" width="185" height="110" as="geometry" />
        </mxCell>
        <mxCell id="TLJ9EzLj0LAoUCGloaJC-41" value="TRTCService" style="rounded=1;whiteSpace=wrap;html=1;fillColor=#d5e8d4;strokeColor=#82b366;" vertex="1" parent="1">
          <mxGeometry x="560" y="1558" width="80" height="30" as="geometry" />
        </mxCell>
        <mxCell id="TLJ9EzLj0LAoUCGloaJC-42" value="IMService" style="rounded=1;whiteSpace=wrap;html=1;fillColor=#d5e8d4;strokeColor=#82b366;" vertex="1" parent="1">
          <mxGeometry x="559" y="1595" width="80" height="30" as="geometry" />
        </mxCell>
        <mxCell id="TLJ9EzLj0LAoUCGloaJC-44" value="LiveService" style="rounded=1;whiteSpace=wrap;html=1;fillColor=#d5e8d4;strokeColor=#82b366;" vertex="1" parent="1">
          <mxGeometry x="650" y="1558" width="80" height="30" as="geometry" />
        </mxCell>
        <mxCell id="TLJ9EzLj0LAoUCGloaJC-45" value="&lt;span style=&quot;font-size: 17px;&quot;&gt;SDK协议&lt;/span&gt;" style="text;html=1;strokeColor=none;fillColor=none;align=center;verticalAlign=middle;whiteSpace=wrap;rounded=0;fontSize=17;fontStyle=1" vertex="1" parent="1">
          <mxGeometry x="540" y="1521" width="100" height="30" as="geometry" />
        </mxCell>
        <mxCell id="TLJ9EzLj0LAoUCGloaJC-46" value="登录注册" style="rounded=1;whiteSpace=wrap;html=1;fillColor=#d5e8d4;strokeColor=#82b366;" vertex="1" parent="1">
          <mxGeometry x="170" y="1387" width="70" height="30" as="geometry" />
        </mxCell>
        <mxCell id="TLJ9EzLj0LAoUCGloaJC-47" value="启动页" style="rounded=1;whiteSpace=wrap;html=1;fillColor=#d5e8d4;strokeColor=#82b366;" vertex="1" parent="1">
          <mxGeometry x="74" y="1387" width="70" height="30" as="geometry" />
        </mxCell>
        <mxCell id="TLJ9EzLj0LAoUCGloaJC-48" value="个人信息" style="rounded=1;whiteSpace=wrap;html=1;fillColor=#d5e8d4;strokeColor=#82b366;" vertex="1" parent="1">
          <mxGeometry x="355" y="1387" width="70" height="30" as="geometry" />
        </mxCell>
        <mxCell id="TLJ9EzLj0LAoUCGloaJC-49" value="设置" style="rounded=1;whiteSpace=wrap;html=1;fillColor=#d5e8d4;strokeColor=#82b366;" vertex="1" parent="1">
          <mxGeometry x="74" y="1426" width="70" height="30" as="geometry" />
        </mxCell>
        <mxCell id="TLJ9EzLj0LAoUCGloaJC-50" value="交友大厅" style="rounded=1;whiteSpace=wrap;html=1;fillColor=#d5e8d4;strokeColor=#82b366;" vertex="1" parent="1">
          <mxGeometry x="170" y="1426" width="70" height="30" as="geometry" />
        </mxCell>
        <mxCell id="TLJ9EzLj0LAoUCGloaJC-51" value="主页面" style="rounded=1;whiteSpace=wrap;html=1;fillColor=#d5e8d4;strokeColor=#82b366;" vertex="1" parent="1">
          <mxGeometry x="264" y="1387" width="70" height="30" as="geometry" />
        </mxCell>
        <mxCell id="TLJ9EzLj0LAoUCGloaJC-53" value="附近的人" style="rounded=1;whiteSpace=wrap;html=1;fillColor=#d5e8d4;strokeColor=#82b366;" vertex="1" parent="1">
          <mxGeometry x="264" y="1426" width="70" height="30" as="geometry" />
        </mxCell>
        <mxCell id="TLJ9EzLj0LAoUCGloaJC-54" value="真人验证" style="rounded=1;whiteSpace=wrap;html=1;fillColor=#d5e8d4;strokeColor=#82b366;" vertex="1" parent="1">
          <mxGeometry x="450" y="1387" width="70" height="30" as="geometry" />
        </mxCell>
        <mxCell id="TLJ9EzLj0LAoUCGloaJC-55" value="..." style="rounded=1;whiteSpace=wrap;html=1;fillColor=#d5e8d4;strokeColor=#82b366;" vertex="1" parent="1">
          <mxGeometry x="355" y="1426" width="70" height="30" as="geometry" />
        </mxCell>
        <mxCell id="TLJ9EzLj0LAoUCGloaJC-56" value="ChatKit" style="rounded=1;whiteSpace=wrap;html=1;fillColor=#d5e8d4;strokeColor=#82b366;" vertex="1" parent="1">
          <mxGeometry x="540" y="1387" width="70" height="30" as="geometry" />
        </mxCell>
        <mxCell id="TLJ9EzLj0LAoUCGloaJC-57" value="CallKit" style="rounded=1;whiteSpace=wrap;html=1;fillColor=#d5e8d4;strokeColor=#82b366;" vertex="1" parent="1">
          <mxGeometry x="630" y="1387" width="70" height="30" as="geometry" />
        </mxCell>
        <mxCell id="TLJ9EzLj0LAoUCGloaJC-59" value="LiveKit" style="rounded=1;whiteSpace=wrap;html=1;fillColor=#d5e8d4;strokeColor=#82b366;" vertex="1" parent="1">
          <mxGeometry x="540" y="1426" width="70" height="30" as="geometry" />
        </mxCell>
      </root>
    </mxGraphModel>
  </diagram>
</mxfile>
